<?xml version="1.0" standalone="no"?><!DOCTYPE svg PUBLIC "-//W3C//DTD SVG 1.1//EN" "http://www.w3.org/Graphics/SVG/1.1/DTD/svg11.dtd"><svg t="1649315195254" class="icon" viewBox="0 0 1024 1024" version="1.1" xmlns="http://www.w3.org/2000/svg" p-id="3470" xmlns:xlink="http://www.w3.org/1999/xlink" width="128" height="128"><defs><style type="text/css"></style></defs><path d="M787.296 67.072H236.672c-107.808 0-169.6 61.824-169.6 169.6v550.784c0 107.808 61.824 169.6 169.6 169.6h550.624c107.808 0 169.6-61.824 169.6-169.6V236.736c0.064-107.84-61.792-169.664-169.6-169.664z m-550.624 64h550.624c73.088 0 105.6 32.576 105.6 105.6v220.8h-182.4l-87.584 116.768-176.768-282.784-166.016 166.016H130.88v-220.8c0.16-73.024 32.736-105.6 105.792-105.6z m550.624 761.92H236.672c-73.056 0-105.6-32.576-105.6-105.6v-257.632h179.2l122.976-122.944 184.48 295.168 129.12-172.224h146.176v257.696c-0.064 72.96-32.64 105.6-105.728 105.6z" p-id="3471"></path></svg>