<?xml version="1.0" standalone="no"?><!DOCTYPE svg PUBLIC "-//W3C//DTD SVG 1.1//EN" "http://www.w3.org/Graphics/SVG/1.1/DTD/svg11.dtd"><svg t="1648102189688" class="icon" viewBox="0 0 1024 1024" version="1.1" xmlns="http://www.w3.org/2000/svg" p-id="8049" xmlns:xlink="http://www.w3.org/1999/xlink" width="200" height="200"><defs><style type="text/css"></style></defs><path d="M512 909.061224c-218.906122 0-397.061224-178.155102-397.061224-397.061224s178.155102-397.061224 397.061224-397.061224 397.061224 178.155102 397.061224 397.061224-178.155102 397.061224-397.061224 397.061224z" fill="#F2CB51" p-id="8050"></path><path d="M633.730612 554.318367h-101.877551v-39.706122h101.877551c10.971429 0 19.853061-8.881633 19.853061-19.853061s-8.881633-19.853061-19.853061-19.853062h-101.877551v-10.448979l87.24898-87.24898c7.836735-7.836735 7.836735-20.37551 0-28.212245-7.836735-7.836735-20.37551-7.836735-28.212245 0L512 428.408163 433.110204 348.995918c-7.836735-7.836735-20.37551-7.836735-28.212245 0-7.836735 7.836735-7.836735 20.37551 0 28.212245l87.24898 87.24898v10.448979H390.269388c-10.971429 0-19.853061 8.881633-19.853061 19.853062s8.881633 19.853061 19.853061 19.853061h101.877551v39.706122H390.269388c-10.971429 0-19.853061 8.881633-19.853061 19.853062s8.881633 19.853061 19.853061 19.853061h101.877551v66.873469c0 10.971429 8.881633 19.853061 19.853061 19.853061s19.853061-8.881633 19.853061-19.853061v-66.873469h101.877551c10.971429 0 19.853061-8.881633 19.853061-19.853061s-8.881633-19.853061-19.853061-19.853062z" fill="#E5404F" p-id="8051"></path></svg>