<?xml version="1.0" standalone="no"?><!DOCTYPE svg PUBLIC "-//W3C//DTD SVG 1.1//EN" "http://www.w3.org/Graphics/SVG/1.1/DTD/svg11.dtd"><svg t="1649315061162" class="icon" viewBox="0 0 1024 1024" version="1.1" xmlns="http://www.w3.org/2000/svg" p-id="1936" xmlns:xlink="http://www.w3.org/1999/xlink" width="128" height="128"><defs><style type="text/css"></style></defs><path d="M588.298039 419.639216c22.086275-22.086275 34.133333-51.2 34.133334-81.317647 0-63.247059-50.196078-114.447059-112.439216-114.447059-63.247059 0-112.439216 50.196078-112.439216 114.447059 0 30.117647 13.05098 59.231373 34.133334 81.317647-56.219608 29.113725-91.356863 88.345098-91.356863 153.6 0 15.058824 11.043137 26.101961 27.105882 26.10196 15.058824 0 27.105882-12.047059 27.105882-26.10196 0-65.254902 53.207843-120.470588 117.458824-120.470589 64.25098 0 117.458824 54.211765 117.458824 120.470589 0 15.058824 11.043137 26.101961 27.105882 26.10196 13.05098 0 24.094118-9.035294 27.105882-23.090196V573.239216c-4.015686-67.262745-40.156863-124.486275-95.372549-153.6z m-18.070588-81.317647c0 33.129412-27.105882 60.235294-60.235294 60.235294s-60.235294-27.105882-60.235294-60.235294 27.105882-60.235294 60.235294-60.235294c32.12549 0 60.235294 28.109804 60.235294 60.235294z" fill="#2c2c2c" p-id="1937"></path><path d="M858.352941 57.223529H166.65098C90.352941 57.223529 29.113725 120.470588 28.109804 197.772549v422.65098c0 78.305882 62.243137 140.54902 138.541176 140.54902h690.69804c76.298039 0 138.541176-63.247059 138.541176-140.54902V197.772549c0-77.301961-61.239216-140.54902-137.537255-140.54902z m72.282353 572.235295c0 40.156863-31.121569 72.282353-69.270588 72.282352H164.643137c-38.14902 0-69.270588-32.12549-69.270588-72.282352V195.764706c0-40.156863 31.121569-72.282353 69.270588-72.282353h695.717647c38.14902 0 69.270588 32.12549 69.270589 72.282353v433.694118zM753.945098 902.52549H270.054902c-19.07451 1.003922-34.133333 16.062745-33.129412 34.133334 1.003922 17.066667 15.058824 30.117647 33.129412 31.121568h483.890196c19.07451-1.003922 34.133333-16.062745 33.129412-34.133333 0-17.066667-15.058824-30.117647-33.129412-31.121569z" fill="#2c2c2c" p-id="1938"></path></svg>