<?xml version="1.0" standalone="no"?><!DOCTYPE svg PUBLIC "-//W3C//DTD SVG 1.1//EN" "http://www.w3.org/Graphics/SVG/1.1/DTD/svg11.dtd"><svg t="1649471180770" class="icon" viewBox="0 0 1024 1024" version="1.1" xmlns="http://www.w3.org/2000/svg" p-id="7557" width="128" height="128" xmlns:xlink="http://www.w3.org/1999/xlink"><defs><style type="text/css"></style></defs><path d="M742.4 576C589.6 638.4 496 793.6 512.8 958.4H64C64 712 264 512 510.4 512c85.6-0.8 164.8 23.2 232 64z m-231.2-64.8C388 511.2 288 411.2 288 288S387.2 64.8 511.2 64.8 734.4 164.8 734.4 288 634.4 511.2 511.2 511.2z m185.6 149.6h260.8v74.4H696.8v-74.4z m-74.4 111.2h335.2v74.4H622.4v-74.4z m-36.8 112h372v74.4H585.6v-74.4z" p-id="7558"></path></svg>