<?xml version="1.0" standalone="no"?><!DOCTYPE svg PUBLIC "-//W3C//DTD SVG 1.1//EN" "http://www.w3.org/Graphics/SVG/1.1/DTD/svg11.dtd"><svg t="1649313429324" class="icon" viewBox="0 0 1024 1024" version="1.1" xmlns="http://www.w3.org/2000/svg" p-id="1285" xmlns:xlink="http://www.w3.org/1999/xlink" width="128" height="128"><defs><style type="text/css"></style></defs><path d="M640 262.4a176 176 0 0 1 112.064 311.68C874.112 627.84 960 766.72 960 928a32 32 0 1 1-64 0c0-174.336-116.032-313.6-256-313.6-139.968 0-256 139.264-256 313.6a32 32 0 1 1-64 0c0-161.344 85.888-300.224 208-353.92A176 176 0 0 1 640 262.4zM384 64a176 176 0 0 1 168.704 125.888 32 32 0 1 1-61.312 18.176A112 112 0 1 0 383.04 352H384a32 32 0 0 1 32 32l-0.32 2.88-0.192 2.88A32 32 0 0 1 384 416l-0.96-0.064-10.944 0.384C237.44 424 128 560.256 128 729.6a32 32 0 1 1-64 0c0-161.344 85.888-300.224 208-353.92A176 176 0 0 1 384 64z m256 262.4a112 112 0 1 0 0 224 112 112 0 0 0 0-224z" p-id="1286"></path></svg>