<?xml version="1.0" standalone="no"?><!DOCTYPE svg PUBLIC "-//W3C//DTD SVG 1.1//EN" "http://www.w3.org/Graphics/SVG/1.1/DTD/svg11.dtd"><svg t="1649471036534" class="icon" viewBox="0 0 1024 1024" version="1.1" xmlns="http://www.w3.org/2000/svg" p-id="6511" width="128" height="128" xmlns:xlink="http://www.w3.org/1999/xlink"><defs><style type="text/css"></style></defs><path d="M426.666667 170.666667l85.333333 85.333333h341.333333a85.333333 85.333333 0 0 1 85.333334 85.333333v426.666667a85.333333 85.333333 0 0 1-85.333334 85.333333H170.666667a85.333333 85.333333 0 0 1-85.333334-85.333333V256a85.333333 85.333333 0 0 1 85.333334-85.333333h256z m426.666666 170.666666H170.666667v426.666667h682.666666V341.333333z m-392.533333 247.466667a102.826667 102.826667 0 0 1 102.4 102.4v34.133333H256v-34.133333a102.826667 102.826667 0 0 1 102.4-102.4h102.4z m273.066667-68.266667v68.266667H597.333333v-68.266667h136.533334zM409.6 384a85.333333 85.333333 0 1 1 0 170.666667 85.333333 85.333333 0 0 1 0-170.666667z m392.533333 34.133333v68.266667H597.333333V418.133333h204.8z" p-id="6512"></path></svg>