<?xml version="1.0" standalone="no"?><!DOCTYPE svg PUBLIC "-//W3C//DTD SVG 1.1//EN" "http://www.w3.org/Graphics/SVG/1.1/DTD/svg11.dtd"><svg t="1649312068273" class="icon" viewBox="0 0 1024 1024" version="1.1" xmlns="http://www.w3.org/2000/svg" p-id="4787" xmlns:xlink="http://www.w3.org/1999/xlink" width="128" height="128"><defs><style type="text/css"></style></defs><path d="M302.933333 277.333333h-55.466666c-6.4 0-10.666667-4.266667-10.666667-10.666666s4.266667-10.666667 10.666667-10.666667h55.466666c6.4 0 10.666667 4.266667 10.666667 10.666667s-4.266667 10.666667-10.666667 10.666666zM302.933333 494.933333h-55.466666c-6.4 0-10.666667-4.266667-10.666667-10.666666s4.266667-10.666667 10.666667-10.666667h55.466666c6.4 0 10.666667 4.266667 10.666667 10.666667s-4.266667 10.666667-10.666667 10.666666z" fill="#2c2c2c" p-id="4788"></path><path d="M904.533333 386.133333H140.8c-6.4 0-10.666667-4.266667-10.666667-10.666666V177.066667c0-17.066667 14.933333-32 32-32h723.2c17.066667 0 32 14.933333 32 32v196.266666c-2.133333 6.4-6.4 12.8-12.8 12.8z m-753.066666-21.333333H896V177.066667c0-6.4-4.266667-10.666667-10.666667-10.666667H162.133333c-6.4 0-10.666667 4.266667-10.666666 10.666667v187.733333z" fill="#2c2c2c" p-id="4789"></path><path d="M883.2 603.733333H162.133333c-17.066667 0-32-14.933333-32-32v-196.266666c0-6.4 4.266667-10.666667 10.666667-10.666667h765.866667c6.4 0 10.666667 4.266667 10.666666 10.666667v196.266666c-2.133333 17.066667-14.933333 32-34.133333 32zM151.466667 386.133333v185.6c0 6.4 4.266667 10.666667 10.666666 10.666667h723.2c6.4 0 10.666667-4.266667 10.666667-10.666667v-185.6H151.466667zM522.666667 878.933333c-36.266667 0-66.133333-29.866667-66.133334-66.133333s29.866667-66.133333 66.133334-66.133333c36.266667 0 66.133333 29.866667 66.133333 66.133333s-29.866667 66.133333-66.133333 66.133333z m0-110.933333c-23.466667 0-44.8 19.2-44.8 44.8s19.2 44.8 44.8 44.8 44.8-19.2 44.8-44.8-21.333333-44.8-44.8-44.8z" fill="#2c2c2c" p-id="4790"></path><path d="M960 823.466667H578.133333c-6.4 0-10.666667-4.266667-10.666666-10.666667s4.266667-10.666667 10.666666-10.666667H960c6.4 0 10.666667 4.266667 10.666667 10.666667s-4.266667 10.666667-10.666667 10.666667zM85.333333 823.466667c-6.4 0-10.666667-4.266667-10.666666-10.666667s4.266667-10.666667 10.666666-10.666667h375.466667c6.4 0 10.666667 4.266667 10.666667 10.666667s-4.266667 10.666667-10.666667 10.666667H85.333333zM522.666667 763.733333c-6.4 0-10.666667-4.266667-10.666667-10.666666v-160c0-6.4 4.266667-10.666667 10.666667-10.666667s10.666667 4.266667 10.666666 10.666667v160c0 6.4-4.266667 10.666667-10.666666 10.666666z" fill="#2c2c2c" p-id="4791"></path></svg>