<?xml version="1.0" standalone="no"?><!DOCTYPE svg PUBLIC "-//W3C//DTD SVG 1.1//EN" "http://www.w3.org/Graphics/SVG/1.1/DTD/svg11.dtd"><svg t="1649311355235" class="icon" viewBox="0 0 1024 1024" version="1.1" xmlns="http://www.w3.org/2000/svg" p-id="4069" xmlns:xlink="http://www.w3.org/1999/xlink" width="128" height="128"><defs><style type="text/css"></style></defs><path d="M878.045 235.833H697.266c0-66.56-53.969-120.53-120.521-120.53h-120.53c-66.552 0-120.521 53.97-120.521 120.53H154.916c-66.552 0-120.522 53.954-120.522 120.514v421.822c0 66.56 53.97 120.529 120.522 120.529h723.129c66.553 0 120.521-53.97 120.521-120.529V356.346c0-66.56-53.968-120.513-120.521-120.513z m-421.83-84.497h120.529c53.197 0 82.049 51.249 82.049 84.497H372.846c0-33.249 19.063-84.497 83.369-84.497z m507.59 626.832c0 49.139-41.732 83.948-88.57 83.948H152.106c-50.267 0-82.726-41.507-82.726-83.948V356.346c0-51.989 42.249-84.963 85.535-84.963h723.129c61.029 0 85.76 44.309 85.76 84.963v421.822z" fill="" p-id="4070"></path><path d="M847.912 440.375H185.048c-16.656 0-21.382 8.163-21.382 18.242 0 10.095 4.726 18.258 21.382 18.258h662.864c16.656 0 21.865-8.163 21.865-18.258 0-10.078-5.209-18.242-21.865-18.242z" fill="" p-id="4071"></path><path d="M847.912 558.522H185.048c-16.656 0-21.382 8.163-21.382 18.241 0 10.096 4.726 18.259 21.382 18.259h662.864c16.656 0 21.865-8.163 21.865-18.259 0-10.077-5.209-18.241-21.865-18.241z" fill="" p-id="4072"></path><path d="M847.912 690.419H185.048c-16.656 0-21.382 8.163-21.382 18.242 0 10.095 4.726 18.258 21.382 18.258h662.864c16.656 0 21.865-8.163 21.865-18.258 0-10.079-5.209-18.242-21.865-18.242z" fill="" p-id="4073"></path></svg>