<?xml version="1.0" standalone="no"?><!DOCTYPE svg PUBLIC "-//W3C//DTD SVG 1.1//EN" "http://www.w3.org/Graphics/SVG/1.1/DTD/svg11.dtd"><svg t="1649313189063" class="icon" viewBox="0 0 1024 1024" version="1.1" xmlns="http://www.w3.org/2000/svg" p-id="9521" xmlns:xlink="http://www.w3.org/1999/xlink" width="128" height="128"><defs><style type="text/css"></style></defs><path d="M853.333 640h-42.666V512c0-12.8-8.534-21.333-21.334-21.333h-256v-85.334H576c23.467 0 42.667-19.2 42.667-42.666v-128C618.667 211.2 599.467 192 576 192H448c-23.467 0-42.667 19.2-42.667 42.667v128c0 23.466 19.2 42.666 42.667 42.666h42.667v85.334h-256c-12.8 0-21.334 8.533-21.334 21.333v128h-42.666C147.2 640 128 659.2 128 682.667v128c0 23.466 19.2 42.666 42.667 42.666h128c23.466 0 42.666-19.2 42.666-42.666v-128c0-23.467-19.2-42.667-42.666-42.667H256V533.333h234.667V640H448c-23.467 0-42.667 19.2-42.667 42.667v128c0 23.466 19.2 42.666 42.667 42.666h128c23.467 0 42.667-19.2 42.667-42.666v-128C618.667 659.2 599.467 640 576 640h-42.667V533.333H768V640h-42.667c-23.466 0-42.666 19.2-42.666 42.667v128c0 23.466 19.2 42.666 42.666 42.666h128c23.467 0 42.667-19.2 42.667-42.666v-128C896 659.2 876.8 640 853.333 640zM448 362.667v-128h128v128H448z m-149.333 448h-128v-128h128v128z m277.333-128v128H448v-128h128z m149.333 128v-128h128v128h-128z" fill="#2c2c2c" p-id="9522"></path></svg>