<svg xmlns="http://www.w3.org/2000/svg" xmlns:xlink="http://www.w3.org/1999/xlink" width="NaN" height="NaN" viewBox="0 0 NaN NaN" fill="none"><rect x="0" y="0" width="0" height="0" fill="rgba(249, 249, 249, 1)" /><defs><rect id="path_0" x="0" y="0" width="323.0005084975827" height="205.666625" /></defs><g opacity="1" transform="translate(-32 -122)  rotate(0 161.50025424879135 102.8333125)"><mask id="bg-mask-0" fill="white"><use xlink:href="#path_0"></use></mask><g mask="url(#bg-mask-0)" ><path id="分组 1" fill-rule="evenodd" style="fill:#000000" transform="translate(0 123)  rotate(0 47.99999999999999 41.333312500000005)" opacity="1" d="M74.67 82.67L90.67 82.67C93.6 82.67 96 80.27 96 77.33L96 61.33C96 58.4 93.6 56 90.67 56L85.33 56L85.33 40C85.33 38.4 84.27 37.33 82.67 37.33L50.67 37.33L50.67 26.67L56 26.67C58.93 26.67 61.33 24.27 61.33 21.33L61.33 5.33C61.33 2.4 58.93 0 56 0L40 0C37.07 0 34.67 2.4 34.67 5.33L34.67 21.33C34.67 24.27 37.07 26.67 40 26.67L45.33 26.67L45.33 37.33L13.33 37.33C11.73 37.33 10.67 38.4 10.67 40L10.67 56L5.33 56C2.4 56 0 58.4 0 61.33L0 77.33C0 80.27 2.4 82.67 5.33 82.67L21.33 82.67C24.27 82.67 26.67 80.27 26.67 77.33L26.67 61.33C26.67 58.4 24.27 56 21.33 56L16 56L16 42.67L45.33 42.67L45.33 56L40 56C37.07 56 34.67 58.4 34.67 61.33L34.67 77.33C34.67 80.27 37.07 82.67 40 82.67L56 82.67C58.93 82.67 61.33 80.27 61.33 77.33L61.33 61.33C61.33 58.4 58.93 56 56 56L50.67 56L50.67 42.67L80 42.67L80 56L74.67 56C71.73 56 69.33 58.4 69.33 61.33L69.33 77.33C69.33 80.27 71.73 82.67 74.67 82.67Z M56 21.3334L56 5.33337L40 5.33337L40 21.3334L56 21.3334Z M21.3334 61.3334L5.33337 61.3334L5.33337 77.3334L21.3334 77.3334L21.3334 61.3334Z M40 61.3334L40 77.3334L56 77.3334L56 61.3334L40 61.3334Z M90.6666 77.3334L90.6666 61.3334L74.6666 61.3334L74.6666 77.3334L90.6666 77.3334Z " /></g></g></svg>